<svg xmlns="http://www.w3.org/2000/svg" xmlns:xlink="http://www.w3.org/1999/xlink" width="1563.488" height="669.013" viewBox="0 0 1563.488 669.013">
  <defs>
    <clipPath id="clip-path">
      <path id="Path_310" data-name="Path 310" d="M1021.4,39.93c-4.513,1.961-14.154,3.64-18.063,3.917s-10.845,2.519-14.154,3.359-9.94.277-13.856,2.8-9.633,3.077-14.154,2.8-15.354,3.354-18.067,5.6-15.358,4.757-18.369,5.038-8.732,3.077-12.649,5.038-10.237,2.8-14.154,3.917-15.656,4.475-19.573,4.757S861.5,79.671,857.28,80.234s-20.78,6.713-23.792,8.115-15.052,4.475-21.376,6.155a238.946,238.946,0,0,0-23.792,8.4c-2.109,1.121-9.637.563-12.049.563s-4.815,1.679-4.215,2.8-2.11,1.961-6.023,3.077a64.672,64.672,0,0,1-11.139,1.679c-2.714.281-13.257,3.921-15.664,5.319s-24.693,6.436-29.512,7.557-23.788,7.557-26.5,8.392c-1.7.525-5.145.509-8.157.484-1.816-.012-3.474-.025-4.488.079-2.713.281-11.445,6.436-14.456,8.4s-8.132,4.48-11.445,4.2-7.226-5.6-7.826-8.4-5.125-5.878-7.23-6.436-1.808-7.838-2.709-10.076-3.917-8.4-5.121-11.755-5.419-9.795-7.532-9.795-3.611,2.8-2.709,6.436a185.529,185.529,0,0,1,3.313,20.152c.906,8.115,5.423,29.388,5.72,33.3s2.411,18.754,2.713,22.112,1.2,17.352.6,18.754.3,5.592.9,7.271,0,6.159.9,7.842-.6,12.872-.9,17.347,1.2,16.512,1.2,18.472-1.808,7.838-2.105,11.755-4.215,27.146-4.517,28.548-3.313,9.513-3.313,11.47-3.313,7.561-4.219,10.08-6.022,17.07-7.528,20.706-13.852,26.029-15.056,27.432-6.928,11.47-8.132,12.591-3.615,7-6.022,8.4-5.117,8.955-7.23,12.037-26.195,33.3-32.821,39.741-31.018,24.908-32.825,26.865-15.962,8.678-18.973,11.2S465.8,483.245,462.781,485.2s-18.973,7.838-26.5,9.236-32.523,10.915-35.534,11.474-20.479,6.44-24.391,7.838-15.056,4.475-18.671,4.757-22.886,4.479-25,5.6-8.43,1.961-11.743.844-10.237,0-14.154.277-10.241.558-12.951,1.679a21.092,21.092,0,0,1-10.237,1.121c-3.011-.562-8.434,0-12.049.558s-3.917-3.077-4.815-5.315-6.022,1.117-9.038,2.515-3.913-3.359-5.117-6.436-2.407-3.636-4.823-2.8a11.469,11.469,0,0,1-7.524-.277c-2.11-.84-6.928.84-9.642,1.4s-5.418-6.713-5.418-8.678-3.011-.277-5.117,0-9.038-3.077-11.445-3.636-3.313-4.2-3.615-5.878-5.117,5.319-8.128,6.717-1.808-2.8-1.208-4.475-5.121-1.679-8.732-1.4-10.841.558-14.456,1.121-4.215,2.238-.6,4.475,21.682,13.435,25.9,16.235,9.038,3.359,13.248,3.359,6.626,5.034,10.237,6.713,13.253,1.121,15.664,1.121,9.637,4.479,14.452,7.838,10.241,1.121,15.664.558,15.656,1.117,20.474,2.8,31.32,3.363,37.342,5.6,26.5,1.121,40.353-1.679,33.127-6.155,40.953-7.276,57.221-24.069,72.881-31.344,53-34.145,65.646-43.662S598.3,404.6,601.912,400.123s18.667-29.107,21.078-37.5,12.045-40.858,20.478-59.893,10.841-62.689,10.241-80.6-11.445-38.058-10.241-45.337,14.452-16.793,25.3-22.389,53.6-14.555,69.861-19.031,83.122-21.831,94.563-24.631S887.4,93.383,898.237,87.787,967.5,71,978.339,66.518s30.116-10.076,36.138-15.114c5.294-4.426,17.488-7.5,17.571-11.652v-.074a2.773,2.773,0,0,0-.707-1.708,1.875,1.875,0,0,0-1.477-.443c-1.894,0-5.179.98-8.463,2.4" transform="translate(-169.451 -37.527)" fill="#151515"/>
    </clipPath>
    <clipPath id="clip-path-2">
      <path id="Path_311" data-name="Path 311" d="M450.572,65.975c-2.109,2.242-2.709,10.353-3.313,11.755s.6,6.155,1.2,8.955,2.109,9.517,3.917,12.036,3.611,10.63,3.011,13.153-.3,20.429-.906,22.39-1.2,14.833-1.506,17.352-1.506,17.352-1.506,22.108-.9,16.231-2.407,20.71-5.423,17.356-9.935,26.592-15.362,26.865-16.57,29.1-11.441,15.954-13.248,17.914-14.15,13.149-18.067,17.347-9.633,12.876-11.445,14.274-9.033,5.319-10.539,6.436-8.43,6.159-11.743,6.721-11.445,4.2-13.248,6.155-4.219,6.717-6.324,7.276-10.543,3.077-14.758,4.2-10.543,5.6-13.55,6.159-6.324.563-8.434,1.4-5.423,1.956-8.434.558-7.226,3.077-9.029,4.761a7.059,7.059,0,0,1-7.834,1.117c-3.011-1.4-8.732-1.956-11.441-.277s-5.121,2.8-12.049,1.956-17.467-1.679-21.078-2.238-6.928-3.636-8.132-2.8,1.2,6.159-.6,5.6-5.72-1.961-8.732-1.679-4.823,1.679-6.63-.281-6.324-1.961-8.43-1.961-6.626,0-6.928,1.961c-.178,1.175,1.808,3.917,2.709,6.44s5.125,5.873,9.34,5.592,21.682-.836,25.6-1.121,22.584,1.121,27.1,1.965,17.165.836,20.177.558a31.683,31.683,0,0,1,5.861.625c3.454.517,7.536,1.034,10.7.215a32.143,32.143,0,0,1,9.336-1.121s2.11,1.961,5.121-.277,6.928-6.721,10.539-7,8.732-2.519,10.539-4.2,6.626-2.519,8.736-2.519,9.935-3.636,12.644-6.436,11.747-8.119,14.456-10.357,17.765-9.513,19.275-11.193,17.165-8.4,20.479-11.478,8.732-8.674,11.143-11.474,7.524-5.878,8.43-8.955,1.2-9.236,4.517-12.036,11.743-8.951,15.358-13.993,8.736-18.187,11.445-23.229,5.117-14.551,8.128-19.031,3.313-14.27,5.725-16.512,2.407-9.236,3.611-12.032,4.819-14.833,5.121-18.191-1.2-11.193.3-13.716,4.521-7.276,1.506-9.795-7.83-3.355-6.324-6.717,2.411-5.6,1.2-7.553-1.807-9.8-1.2-11.755-.3-7.28-1.808-9.518-4.517-5.319-3.913-6.155.3-2.242-1.208-4.761-2.709-9.513-1.5-11.193,3.313-5.038,2.105-6.44-3.313-1.117-3.615-3.359-4.215-8.392-5.418-9.791c-.9-1.051-3.483-3.032-5.613-3.032a2.522,2.522,0,0,0-1.915.79" transform="translate(-191.876 -65.185)" fill="#151515"/>
    </clipPath>
    <clipPath id="clip-path-3">
      <path id="Path_312" data-name="Path 312" d="M367.54,8.133c-2.213,1.307-8.434,3.545-9.439,4.666-.695.778-3.028.749-5.2.716-.96-.008-1.89-.025-2.626.033-2.411.186-8.835,2.238-12.049,2.986s-13.05,2.982-17.265,4.285-17.666,6.535-21.484,8.959-24.892,11.941-28.3,13.248S252.1,50.674,250.7,51.232s-9.439,6.9-11.648,7.466-5.617,4.1-7.023,5.224-12.446,9.513-13.856,10.448-12.645,12.686-15.254,14.365-13.451,14.742-15.461,15.672S173.2,120.08,172.4,121.2s-10.237,11.383-12.045,12.876-9.034,11.937-9.836,13.8-9.439,14.555-11.643,18.1-4.715,11.217-4.219,13.062c.778,2.879,2.263,7.826,4.736,8.318a97.763,97.763,0,0,1,10.883,2.473c4.951,1.485,9.493,3.52,14.4.029,1.162-.827,1.654-4.62,2.56-6.717s5.265-5.6,6.924-6.717,4.215-8.4,5.117-10.357-.149-4.335,1.659-5.456,6.928-7.28,8.732-8.537,8.434-7.135,9.488-9.091,2.411-6.581,3.011-8.115a13.825,13.825,0,0,1,5.27-5.741c2.105-.98,6.473-6.018,7.983-8.256a73.7,73.7,0,0,1,6.924-7.975c1.808-1.82,6.022-5.737,7.979-6.159s9.187-4.9,11.3-5.737,9.484-7.276,11.892-8.955,9.637-4.9,12.2-6.018,7.979-6.3,8.132-7.838,6.32-7.135,7.379-8.674,6.622-1.257,8.579-1.4,7.983-2.1,9.038-2.378,6.171-.422,7.077-1.262,6.324-3.64,6.022-4.761.451-3.073,1.5-3.359,7.081-5.456,8.736-6.572,4.819,0,7.979.84a7.93,7.93,0,0,0,7.379-2.238c1.055-1.262,6.171-6.672,10.39-6.3,2.2.194,8.186-5.638,8.682-8.6s3.962-6.928,6.928-10.394,8.905-7.42,10.882-10.39-.244-4.2-.244-4.2a7.529,7.529,0,0,0-3.913-1.026,5.309,5.309,0,0,0-2.709.654" transform="translate(-134.59 -7.479)" fill="#151515"/>
    </clipPath>
    <clipPath id="clip-path-4">
      <path id="Path_313" data-name="Path 313" d="M532.082,68.5c-.492,1.535-1.82,11.763-2.221,13.439s-3.214,11.387-3.818,12.318-1.005,8.583-1.005,10.262-2.209,8.955-2.61,10.262,0,7.838,0,8.955-2.209,6.531-3.011,8.583.8,10.452.8,11.755-.2,15.11,0,17.352,0,7.466,1.208,9.331,1.6,6.341,1,8.955,2.61,17.91,2.813,20.152,1.6,18.659,2.407,21.078,4.016,13.811,4.417,16.979,6.022,16.049,5.824,17.165-3.417,2.242-6.225,2.986-14.254,3.359-16.863,4.48-16.661,5.969-20.276,7.09-20.88,6.717-24.7,7.652-24.089,8.02-26.5,9.327a147.956,147.956,0,0,1-18.071,6.531c-2.809.558-8.231.186-9.435-.935s-4.215-3.917-5.824-5.41-1.2-8.4-1.8-11.383-1.609-12.5-2.813-13.993-7.027,2.056-8.632,3.363-11.846,4.662-14.051,5.22-.405,7.09.2,9.145,2.006,8.392,2.61,11.007,2.407,7.28,1.807,8.206-4.819.749-6.225.562-2.006-2.424-3.011-3.731-1.406-6.345-1.406-8.21-1.406-12.127-1.808-13.621-7.023,2.986-9.836,4.107-6.225,6.527-8.028,13.993,1.2,13.993,1.2,16.231-4.215,7.462-5.824,8.769-8.632,2.238-12.45,2.424-19.469-4.1-26.294-5.969-18.472-2.982-23.891-3.359-26.5.562-30.319,2.056-14.253,9.141-15.457,11.007-10.44,4.293-13.451,5.41-10.841,2.424-14.253,3.917-22.485,10.076-26.1,12.5-19.072,3.359-21.682,3.359-8.632-.744-13.451,0-32.523,8.4-35.336,9.518-13.848,2.242-16.061,2.424S87.577,362,83.763,362.182s-13.65,1.493-17.265,2.056-19.473,1.493-22.083,1.866-10.444,3.545-15.259,5.973S17.711,381.962,15.1,384.948s-10.531,7.7-12.649,11.007C.716,398.676,0,399.743,0,401.514v.017a10.6,10.6,0,0,0,.145,1.609c.451,2.937,1.51,6.994,1.208,8.115s1.654,4.339,1.956,5.179,3.16,3.78,3.913,5.456a34.343,34.343,0,0,1,2.258,8.537c.149,2.378,3.615,7.557,4.819,8.537a36.112,36.112,0,0,1,5.72,6.577A20.351,20.351,0,0,0,26.5,451.7c1.956.98,4.666,1.816,6.32,2.8s5.423,1.117,7.532,1.257a24.512,24.512,0,0,1,7.528,2.238c1.055.7,5.572,1.262,8.885,1.539s9.182-2.519,11.445-3.077,8.732-2.66,11.892-3.222,10.692-5.315,12.653-5.878a56.272,56.272,0,0,0,8.881-4.194c1.5-.98,9.182-3.921,11.292-4.9s17.467-8.678,21.078-9.795,11.9-6.3,13.554-6.858,4.517-3.359,6.32-4.058,12.5-4.9,13.7-5.179,12.2-5.878,15.362-7.135,13.1-5.46,17.165-6.159,8.579-1.961,10.99-2.378,5.423-1.82,7.077-1.961,4.968-2.66,7.677-2.937,14.158-1.262,17.62-1.121,12.946-.98,14.754-1.257,12.951-1.4,14.907-2.1,6.473-2.378,7.983-2.378,5.418-2.378,7.375-3.077,6.924-2.1,8.281-2.378,4.219-3.64,5.72-4.058,5.427-4.062,6.324-4.761,6.626-4.757,8.587-6.713,16.863-17.914,17.467-19.035,5.265-3.077,7.975-3.077,6.928-.141,9.187-.84,9.637-.84,11.143-.563,2.56,3.5,4.819,5.741,8.128,7.416,10.99,9.795,8.885,5.315,10.994,6.577,5.423.7,7.979,1.4,7.379.277,8.43-.563-.749-2.66-1.353-3.5-4.368-9.931-4.968-11.052-.757-5.46-1.808-6.581A8.425,8.425,0,0,1,396,337.65c0-1.4-1.2-2.8-1.353-3.917s3.16-2.8,4.815-2.8a3.039,3.039,0,0,1,2.56.98c.753.558,1.808,3.218,2.258,5.6s3.011,5.6,4.219,7.416,3.913,7.7,5.265,9.236,1.51,4.62,2.709,6.155,3.466-.976,4.67-1.4,10.543-5.315,12.045-5.873,6.626-2.1,10.088-2.941,1.659-2.238.3-3.636-4.968-5.038-6.171-6.022-.153-5.315-1.655-6.3-3.164-4.058-3.466-5.034a39.992,39.992,0,0,0-3.611-5.741c-.757-.98-.153-3.5,1.5-4.339s4.066-3.5,6.022-5.456,5.878-4.2,7.681-5.737a13.22,13.22,0,0,1,7.83-2.66c3.164-.141,11.143-4.339,14.307-4.616s16.111-5.038,18.667-5.46,4.972-.418,6.324-.836,14.456-4.062,17.62-4.343,5.869-2.8,9.484-3.5,14.154-4.2,15.809-4.475,6.175-1.121,7.528-1.121,5.121-2.242,8.434-4.339,4.062-6.3,4.819-7.276a6.559,6.559,0,0,0,1.506-4.2,12.281,12.281,0,0,1,1.051-6.155c1.055-2.238-.6-3.359-.6-4.194s-.149-4.9-.9-5.6-2.263-6.436-3.466-7.28-1.659-4.616-1.357-6.155a2.013,2.013,0,0,0-1.2-2.378c-.6-.422-1.208-5.6-1.208-7.838s0-14.692.455-16.93-.906-11.478-1.059-13.157,0-13.294.906-14.828.153-9.522,0-11.056.906-6.018.906-7.139.149-7.135-.3-8.533,1.353-6.717,1.654-7.557,0-7.557,0-8.678,1.055-4.339,1.2-5.46.153-7.412-.6-9.091,1.659-7.139,1.506-8.537.153-7.557,0-8.537,1.8-6.3,1.956-7.135a43.357,43.357,0,0,0,.149-7.7c-.3-1.117,1.208-4.058,1.357-5.174s1.286-6.192.3-7.557c-1.568-2.184-7.834-9.2-10.8-9.7s-8.409-4.451-10.39-6.928c-.347-.43-.645-.62-.914-.62-1.262,0-1.77,4.256-2.771,7.4" transform="translate(0 -61.105)" fill="#151515"/>
    </clipPath>
    <clipPath id="clip-path-5">
      <path id="Path_314" data-name="Path 314" d="M226.09,7.241c-3.677,1.675-7.143,4.645-7.143,6.622s-1.481,8.413-3.462,10.39-4.6,8.4-2.8,10.882c.889,1.22,7.83.558,9.633,1.539s4.521.84,6.626.98,4.517,2.66,7.23,3.5,12.194.7,14.3.141c1.158-.3,4.136-.149,6.908.008a39.721,39.721,0,0,0,5.286.132c1-.141,3.512.451,5.956,1.042a28.75,28.75,0,0,0,5.489,1.055c1.808-.136,2.862.563,5.121,1.543s5.72,1.121,7.379,1.816,5.869.422,7.677.563,5.874,3.5,7.379,3.359,6.324,1.956,7.83,2.1,8.281,2.66,9.187,3.64a40.9,40.9,0,0,0,6.924,4.62c1.506.7,6.477,2.378,8.583,3.354s3.615,2.966,5.476,3.706c3.388,1.344,9.728-1.981,11.213-3.963s8.082-8.343,8.082-8.343l-5.8-4.087c-2.411-1.493-10.643-3.545-13.451-4.289s-15.06-7.094-18.27-8.773S307.595,32.431,306.8,31.31s-9.236-5.038-10.845-5.224-2.61-1.679-4.413-2.238-10.039-.749-12.45-.563-16.057-.558-20.276-1.493S244.157,11.721,242.35,10.414c-1.584-1.15-11.664-3.3-15.2-3.3a2.879,2.879,0,0,0-1.055.132" transform="translate(-212.082 -7.109)" fill="#151515"/>
    </clipPath>
    <clipPath id="clip-path-6">
      <path id="Path_315" data-name="Path 315" d="M257.707,37.069c0,1.679,2.411,3.921,1.659,5.6s1.8,4.9,1.956,6.159a23.807,23.807,0,0,0,3.011,7.135c1.357,1.961,2.862,5.319,4.215,6.858s3.917,7.557,4.219,9.654.9,5.6.6,7.276.153,5.6-.753,7.979-1.808,8.115-1.055,10.353,2.263,8.4,1.808,9.935-.149,9.236-.3,10.916-2.713,6.44-4.368,8.256-4.67,4.2-4.972,5.737-1.353,6.721-2.407,7.557-1.055,3.359-1.654,5.737-3.917,2.519-6.324,2.382-3.615-2.382-4.972-3.921-3.917-1.82-4.968-3.359a7.119,7.119,0,0,1-1.055-5.456c.455-1.679-1.055-3.5-2.709-4.339s-5.274-.98-6.924-2.382a20.9,20.9,0,0,0-6.324-3.354c-2.114-.7-6.928-.141-8.736.418s-8.281.7-8.885-.141-4.517-2.1-6.022-2.238-3.764-3.776-5.572-5.179-2.56,1.679-4.215,3.222-2.411-1.543-2.713-2.519-2.407.558-3.313.976-6.924,1.679-9.935,3.081a6.916,6.916,0,0,1-5.874,0c-5.617-1.489-11.553-4.463-17-6.44s-11.383-5.439-12.864-8.409-7.42-11.383-9.4-8.905-2.473,7.913-1.481,10.882,0,11.383,2.966,13.852,4.451,7.917,4.947,10.887,0,8.413,5.443,9.9,5.15,7.735,8.264,8.318c.794.149,1.655.422,5.423,2.242s4.968,1.539,8.281,3.359,6.022,3.776,7.979,3.917,6.928,2.941,9.038,5.038,3.913,2.937,6.171,2.937,4.968,3.081,4.819,4.339.753,2.66,1.506,3.64,1.055,3.218,1.654,4.48.753,3.636,2.263,5.174.3,3.5,1.8,5.038.753,3.082.753,4.616a15.445,15.445,0,0,0,1.956,5.737c.753,1.262.451,4.2.153,5.319s1.357,3.082,1.506,4.339,0,9.658-.149,11.056,1.055,4.194,1.655,5.315.6,7.979.3,9.658,1.059,2.8,1.659,4.2,1.357,7.693,1.506,9.1,1.357,2.655,1.2,4.475,1.51,7.28,1.812,8.818,2.858,4.757,2.858,5.733,0,4.761,1.654,6.159.6,4.62,1.357,5.456,2.105,4.9,2.862,7.7,4.368,9.935,5.117,11.892,3.16,9.373,5.121,12.036,6.928,9.513,8.885,11.474,3.011,6.155,3.611,8.678,2.114,3.776,4.219,5.179,4.066,5.456,4.517,6.994,5.121,6.854,6.324,8.814,1.353.7,2.258,2.8,3.913,4.475,4.215,5.456,3.466,2.238,4.517,3.222a24.064,24.064,0,0,1,3.764,5.17c.451,1.121,4.819,4.48,6.026,5.741s4.815,3.5,5.869,4.48,5.27,5.038,6.477,6.014,9.182,5.737,10.688,6.436,6.324,4.2,7.979,5.179a31.357,31.357,0,0,0,7.83,2.378c1.808.281,3.615,1.679,4.823,2.383s3.462.558,6.171.418a14.262,14.262,0,0,1,7.528,2.378c1.357.98,5.423,2.519,7.528,3.359a38.268,38.268,0,0,1,6.626,3.5c3.462,2.1,12.8.558,14.456.558s4.215-1.4,6.171-2.1,4.517-.7,5.72,0a9.5,9.5,0,0,0,6.329.277c2.105-.7,5.269-1.956,6.324-2.1a105.319,105.319,0,0,0,10.535-4.2c1.357-.7,4.67-1.956,6.775-1.257s5.878-.422,7.379-1.121a10.116,10.116,0,0,1,6.473-.563,5.279,5.279,0,0,0,3.181-.248,5.624,5.624,0,0,1,3-.31c1.956.558,5.72-.558,7.524-.98s7.077-2.234,7.83-3.354,4.521-3.359,5.572-3.781,2.109-4.058,2.713-4.757,1.2-4.62.9-6.018.9-4.2,1.055-4.9a6.394,6.394,0,0,0-1.208-3.917c-.9-1.121-1.353-3.781-2.254-5.179s-3.466-2.238-4.368-1.4-3.313,2.382-4.066,1.4-4.968-2.8-6.626-3.359-4.666-3.359-5.571-4.757-4.517-1.961-4.819-3.082-1.654-3.5-3.309-3.5-3.764-.7-3.615.422,0,3.776-.9,3.218a63.757,63.757,0,0,1-6.324-6.436,9.889,9.889,0,0,0-4.066-2.8c-1.51-.422-1.208-1.543-1.808-2.523s-7.077-4.335-8.434-5.179-4.819-5.592-6.324-6.573a17.893,17.893,0,0,1-4.215-5.042c-.451-.976-3.615-4.757-3.764-5.456s-2.862-2.238-3.011-3.636-2.407-4.058-3.764-5.038a10.162,10.162,0,0,0-5.423-2.1c-1.956,0-5.72-6.717-7.226-7.557s-4.066-3.636-5.418-4.9-6.027-6.994-7.379-8.115-4.823-7.979-6.022-9.658-3.313-8.392-3.313-10.072a65.624,65.624,0,0,0-1.208-8.537c-.3-1.121-.753-8.533-.753-9.8s-.451-12.309,0-13.707a20.031,20.031,0,0,0,0-6.721c-.3-1.535.906-6.436,1.659-8.392s.153-12.314-.3-15.114.455-9.1.455-11.9-.3-16.09-.3-18.613-.153-11.615.3-12.731,1.2-4.058,2.105-5.038,3.16-6.717,3.462-8.256,1.956-5.6,2.407-7.7a47.93,47.93,0,0,0,.3-10.357c-.3-1.816-1.051-15.25-1.051-16.508a21.673,21.673,0,0,0-1.506-6.3c-.6-.98-.153-7.416-.906-9.658a115.607,115.607,0,0,1-2.56-11.615c-.149-1.394-2.556-8.252-3.764-9.373s-3.011-7.135-4.666-8.256-3.764-2.66-3.764-3.917-3.615-3.359-4.066-4.62-3.011-3.077-4.219-3.636a33.63,33.63,0,0,1-6.622-6.159c-.6-1.117-5.873-5.038-7.077-5.733s-4.219-4.48-5.572-4.761a45.862,45.862,0,0,1-7.528-3.081c-1.808-.98-8.281-3.214-9.484-4.475s-4.521-1.539-6.175-1.679-5.423-2.1-7.83-3.218-6.928-1.679-10.088-1.679-4.368,1.679-4.368,3.359" transform="translate(-129.889 -33.71)" fill="#151515"/>
    </clipPath>
    <clipPath id="clip-path-7">
      <path id="Path_316" data-name="Path 316" d="M274.872,0a3.929,3.929,0,0,0-.591.054c-3.214.558-8.231,3.917-10.035,6.159S255.613,17.406,254,19.272s-12.247,7.834-14.055,8.4c0,0-10.328,7.007-12.8,12.946s-7.42,12.363-10.394,13.356-8.409,7.42-9.4,10.39-6.419,7.822-7.909,10.837c-.823,1.659-1.654,4.2-2.709,5.882s-2.411,5.873-1.506,7.693-.3,4.48-1.357,5.878-.149,4.616-.3,6.014-.6,6.022-.906,8.4.906,5.315,2.565,5.179,2.407.836,1.051,2.515a56.91,56.91,0,0,0-4.513,6.577c-.906,1.679,1.8,3.5,1.353,4.339s-2.56.84-2.407,2.242a11.8,11.8,0,0,1-1.208,6.155c-1.051,1.679-.753,5.737-.753,7.276a50.447,50.447,0,0,1-2.105,10.634c-.906,2.1-.757,11.478-.455,12.595s2.263,4.9,1.812,5.741-.757,10.494-.153,12.028,1.506,3.644,1.2,4.761.6,6.018,1.055,7.276a13.37,13.37,0,0,1,.906,4.757,74.006,74.006,0,0,0,.753,9.377c.3,1.961.451,12.595,1.051,14.415s.906,10.353,1.208,12.032-.3,12.876-.906,15.4a108.217,108.217,0,0,0-1.654,14.134c.149,1.4-.153,14.415-.451,16.793s-.6,16.371-1.208,20.706,0,19.73-.3,21.132,1.51,8.115,1.357,9.236,1.8,8.533,3.164,9.935c.736.765,2.1.529,3.317.294,1.009-.2,1.911-.393,2.25-.017.753.844-.451,6.159,0,7.7s3.764,4.335,4.521,5.733,2.709,5.319,3.764,6.018,3.764,1.262,3.611-.137-1.357-4.48-1.055-5.737,3.313-2.941,4.521-1.4,2.254,4.48,3.611,6.018,5.121,6.014,5.571,7.412,3.917,3.644,5.72,4.058,5.423,3.921,6.175,4.9a36.419,36.419,0,0,0,8.132,5.456c2.105.844,5.72,4.9,7.677,6.436s11.143,6.3,13.252,7.979,7.979,2.8,10.088,2.8a19.393,19.393,0,0,0,6.626-1.262c.9-.558,5.72-2.238,6.622-3.218s4.819-5.737,5.27-7.135,3.313-7.979,4.67-9.1,1.8-6.155,1.956-7.272,4.066-8.818,4.368-9.8,5.121-5.737,7.528-6.717,2.105-6.577,3.011-7.135,1.956-4.9,1.8-7.135.6-16.793.153-19.593.6-20.851.906-25.467,1.055-22.671,1.055-27.15-.6-25.463-1.812-27.427-1.353-7.135-1.353-8.392a60.086,60.086,0,0,0-1.357-8.678c-.451-1.4-4.066-2.937-5.265-3.082s-1.208-2.515-1.659-3.5a16.148,16.148,0,0,1-.3-7.975c.753-3.081-1.2-4.058-1.956-4.9s-1.808-7.135-1.808-8.674-2.411-8.256-2.56-9.935a23.45,23.45,0,0,0-1.506-7.557c-1.2-2.655-7.83-10.357-9.336-11.615s-2.109-5.315-1.956-7.834-.3-12.318-.153-13.294-.9-2.66-2.556-3.222-2.862-3.359-2.709-4.335-1.208-8.678-1.357-9.658-1.357-4.058-.906-5.737-.3-7.412-1.655-8.814-.906-6.018-1.208-7-1.353-6.155-1.2-7.135-1.051-6.018-1.352-7.693-3.764-.844-4.521-1.266-1.2-4.757-.9-6.014-1.956-2.378-1.654-3.222-.455-6.291-.906-8.392,1.51-7.838,1.659-9.513,2.862-5.179,5.873-6.581l13.6-32.652c.2-1.117-2.411-9.327-2.411-11.379a45.063,45.063,0,0,0-2.407-10.262C282.776,3.372,278.284.067,275.07,0Z" transform="translate(-185.962 -0.001)" fill="#151515"/>
    </clipPath>
    <clipPath id="clip-path-8">
      <path id="Path_317" data-name="Path 317" d="M382.007,23.4c-3.962,2.478-11.875,7.425-13.856,8.413s-9.4,5.94-16.144,6.618c-1.34.141-7.979,3.921-9.791,4.343s-4.513,1.394-5.117,2.093-5.873,2.523-7.379,2.8-5.117,3.5-6.775,3.781-4.968,3.218-5.418,4.2-3.313,2.378-4.823,2.8-6.171,5.878-7.826,7.693S295.692,76.361,294.79,77.2s-3.317,3.359-3.917,5.315-4.066,3.781-4.368,5.6-3.16,6.577-4.215,7.834a36.792,36.792,0,0,0-4.066,7.979,44.72,44.72,0,0,1-3.313,7.416c-.9,1.539-3.611,9.935-4.364,12.45s-3.462,10.916-3.764,12.736-1.357,8.256-2.258,9.795-.906,14-1.357,16.235,0,8.678-.149,10.072,2.254,4.48,1.952,5.323,1.51,7.276,1.208,8.674,1.208,6.854,1.8,8.256.757,7,1.357,8.818A53.2,53.2,0,0,1,271,213.5c0,1.956,1.807,8.955,1.956,11.052s0,17.492,0,19.035a30.407,30.407,0,0,1-1.055,5.733c-.3,1.121,1.055,7.139,1.055,9.381s-.753,18.75-.906,21.405-1.5,13.294-1.952,14.415-.153,3.359.149,4.616-.753,8.115-1.2,9.377,0,9.654-.3,10.775a58.066,58.066,0,0,0-1.808,6.436c-.149,1.543-.9,7-1.659,7.7s-2.105,5.179-2.254,7.416a5.916,5.916,0,0,1-1.812,4.2c-1.051,1.257-.749,5.179-1.051,6.717a15.009,15.009,0,0,1-2.56,5.319c-.9.98-4.368,8.814-4.968,11.193s-3.313,8.115-3.768,9.658-3.611,4.335-4.964,4.757-4.368,3.636-5.878,5.46-3.313,8.252-4.513,8.674-3.164,5.174-4.521,7.276-5.869,4.616-7.979,5.456-7.073,6.581-8.281,6.858-3.011,4.757-3.011,6.018.906,6.436-.149,7.557-.455,6.577.3,7.276,1.654,1.539,3.313.558,4.066-1.121,5.572-1.257c.538-.05,1.6-.008,2.8.029,2.167.07,4.81.141,5.778-.31,1.506-.7,6.825-1.026,8.231-1.584s6.027-.749,8.033-1.121,9.034-2.428,10.638-3.359,8.632-2.242,9.84-1.679,5.418-.935,6.423-1.865c.538-.5,1.65-.194,2.78.112a4.909,4.909,0,0,0,2.639.265c1.406-.563,3.412-1.679,5.22-1.679s4.819-1.87,5.621-2.986,6.022-2.242,8.434-2.986,7.023-4.48,10.638-6.717,11.644-10.448,13.455-12.314,8.029-9.7,9.029-10.82,4.016-5.787,5.021-6.535,3.611-4.285,4.616-4.848,1.005-4.1,3.011-5.038,7.028-7.834,8.632-8.583,4.016-6.9,3.615-8.583,1.2-5.787,2.407-6.717.2-6.717,1.005-7.462,2.61-6.535,3.611-7.28,2.213-9.327,2.813-12.314,4.62-2.428,5.423,1.121,3.814,1.117,4.417-.935a13.453,13.453,0,0,0,0-6.9c-.6-2.056.2-8.024.8-9.708s-.4-3.541-.4-4.848.4-11.941,1.005-13.435,1.2-6.9,1.6-8.583.2-10.82-.2-12.686,1.208-7.094,1.406-10.448.2-16.793.2-19.031-2.813-2.8-4.219-3.545-1.6-9.141-2.006-10.634-1.808-5.414-.4-8.959.8-6.155-.6-7.648-1.8-4.852-1.6-7.466-1.807-7.834-3.615-9.327-1.6-6.159-2.407-9.331-7.23-18.1-9.034-20.148-3.615-8.024-4.422-9.7-3.011-10.82-3.011-14.742.405-19.213.807-23.32,1.8-16.6,2.808-19.589,10.44-21.087,12.649-23.883,6.568-12.545,8.636-12.69c4.7-.319,8.153-8.09,8.649-12.049s5.088-7.185,6.928-8.413c4.451-2.966,4.451-7.913,7.425-13.356.823-1.51.091-2.081-1.373-2.081-2.709,0-7.933,1.956-10.5,3.561" transform="translate(-208.997 -19.843)" fill="#151515"/>
    </clipPath>
  </defs>
  <g id="Group_358" data-name="Group 358" transform="translate(-1416.5 -6637.233)">
    <g id="Group_357" data-name="Group 357" transform="translate(1416.5 6637.233)">
      <g id="Group_342" data-name="Group 342" transform="translate(700.89 155.217)">
        <g id="Group_341" data-name="Group 341" clip-path="url(#clip-path)">
          <rect id="Rectangle_144" data-name="Rectangle 144" width="863.784" height="514.842" transform="translate(-1.187)" fill="#151515"/>
        </g>
      </g>
      <g id="Group_344" data-name="Group 344" transform="translate(793.647 269.617)">
        <g id="Group_343" data-name="Group 343" clip-path="url(#clip-path-2)">
          <rect id="Rectangle_145" data-name="Rectangle 145" width="291.088" height="294.654" transform="translate(-0.167)" fill="#151515"/>
        </g>
      </g>
      <g id="Group_346" data-name="Group 346" transform="translate(556.696 30.931)">
        <g id="Group_345" data-name="Group 345" clip-path="url(#clip-path-3)">
          <rect id="Rectangle_146" data-name="Rectangle 146" width="242.231" height="185.874" transform="translate(-0.433 0)" fill="#151515"/>
        </g>
      </g>
      <g id="Group_348" data-name="Group 348" transform="translate(0 252.741)">
        <g id="Group_347" data-name="Group 347" clip-path="url(#clip-path-4)">
          <rect id="Rectangle_147" data-name="Rectangle 147" width="558.314" height="398.709" transform="translate(0 0)" fill="#151515"/>
        </g>
      </g>
      <g id="Group_350" data-name="Group 350" transform="translate(877.225 29.4)">
        <g id="Group_349" data-name="Group 349" clip-path="url(#clip-path-5)">
          <rect id="Rectangle_148" data-name="Rectangle 148" width="148.09" height="62.461" transform="translate(-1.201 0)" fill="#151515"/>
        </g>
      </g>
      <g id="Group_352" data-name="Group 352" transform="translate(537.252 139.429)">
        <g id="Group_351" data-name="Group 351" clip-path="url(#clip-path-6)">
          <rect id="Rectangle_149" data-name="Rectangle 149" width="324.811" height="383.703" transform="translate(-0.496 0)" fill="#151515"/>
        </g>
      </g>
      <g id="Group_354" data-name="Group 354" transform="translate(769.183 0)">
        <g id="Group_353" data-name="Group 353" clip-path="url(#clip-path-7)">
          <rect id="Rectangle_150" data-name="Rectangle 150" width="133.41" height="401.807" transform="translate(-0.218 0)" fill="#151515"/>
        </g>
      </g>
      <g id="Group_356" data-name="Group 356" transform="translate(864.463 82.071)">
        <g id="Group_355" data-name="Group 355" clip-path="url(#clip-path-8)">
          <rect id="Rectangle_151" data-name="Rectangle 151" width="186.197" height="418.948" transform="translate(-0.489 0)" fill="#151515"/>
        </g>
      </g>
    </g>
  </g>
</svg>
