<svg xmlns="http://www.w3.org/2000/svg" width="118.552" height="21.05" viewBox="0 0 118.552 21.05"><g transform="translate(0 0)"><path d="M11.067,0,8.033,7.46,0,8.04l6.158,5.191L4.227,21.05l6.84-4.252,6.84,4.252-1.931-7.819L22.134,8.04,14.1,7.46Z" transform="translate(0 0)" fill="#f77e0b"/><path d="M11.067,0,8.033,7.46,0,8.04l6.158,5.191L4.227,21.05l6.84-4.252,6.84,4.252-1.931-7.819L22.134,8.04,14.1,7.46Z" transform="translate(24.104 0)" fill="#f77e0b"/><path d="M11.067,0,8.033,7.46,0,8.04l6.158,5.191L4.227,21.05l6.84-4.252,6.84,4.252-1.931-7.819L22.134,8.04,14.1,7.46Z" transform="translate(48.209 0)" fill="#f77e0b"/><path d="M11.067,0,8.033,7.46,0,8.04l6.158,5.191L4.227,21.05l6.84-4.252,6.84,4.252-1.931-7.819L22.134,8.04,14.1,7.46Z" transform="translate(72.313 0)" fill="#f77e0b"/><path d="M11.067,0,8.033,7.46,0,8.04l6.158,5.191L4.227,21.05l6.84-4.252,6.84,4.252-1.931-7.819L22.134,8.04,14.1,7.46Z" transform="translate(96.418 0)" fill="#f77e0b"/></g></svg>